<svg width="203" height="205" viewBox="0 0 203 205" fill="none" xmlns="http://www.w3.org/2000/svg">
<path d="M3.78068 75.7778C18.8618 21.5439 74.7005 -10.2938 128.499 4.66643C182.298 19.6267 213.685 75.7197 198.604 129.954C183.523 184.187 127.684 216.024 73.8852 201.064C20.0867 186.103 -11.3002 130.011 3.78068 75.7778ZM165.08 42.4281C157.117 25.3122 136.531 19.4717 117.948 22.7963C88.396 28.0834 54.7315 42.2118 32.1733 72.601C1.70744 113.642 28.5126 158.561 58.3842 180.729C88.2533 202.871 133.762 187.284 153.401 138.145C153.404 138.138 153.411 138.133 153.418 138.133C153.426 138.133 153.433 138.129 153.436 138.122C172.589 99.8084 176.198 66.3217 165.08 42.4281Z" fill="#3B3B3B"/>
</svg>
