<svg width="1506" height="380" viewBox="0 0 1506 380" fill="none" xmlns="http://www.w3.org/2000/svg">
<path d="M1334.21 346.324C1337.65 346.589 1341.09 346.854 1344.54 347.118C1347.98 347.648 1350.63 347.913 1352.48 347.913C1356.72 347.913 1360.42 346.457 1363.6 343.544C1366.78 340.631 1370.22 334.939 1373.93 326.466C1377.9 318.258 1382.93 306.078 1389.02 289.927L1301.25 82.6094H1338.18L1408.08 254.58L1471.23 82.6094H1505.78L1404.91 344.338C1402.52 350.428 1398.95 356.121 1394.18 361.416C1389.68 366.976 1383.86 371.345 1376.71 374.523C1369.56 377.7 1360.95 379.288 1350.89 379.288C1348.51 379.288 1345.99 379.156 1343.35 378.891C1340.96 378.627 1337.92 378.097 1334.21 377.303V346.324Z" fill="#3B3B3B"/>
<path d="M1219.2 0H1254.15V236.311C1254.15 247.696 1255.74 254.712 1258.92 257.36C1262.1 260.008 1265.94 261.332 1270.44 261.332C1276 261.332 1281.29 260.802 1286.32 259.743C1291.35 258.419 1295.59 257.095 1299.03 255.772L1304.59 284.367C1298.77 286.75 1291.88 288.736 1283.94 290.324C1276 291.913 1268.98 292.707 1262.89 292.707C1249.39 292.707 1238.66 288.868 1230.72 281.19C1223.04 273.511 1219.2 262.788 1219.2 249.02V0Z" fill="#3B3B3B"/>
<path d="M1186.01 279.601C1183.1 280.925 1179.13 282.646 1174.1 284.764C1169.07 286.882 1163.24 288.736 1156.62 290.324C1150.01 291.913 1142.99 292.707 1135.58 292.707C1127.1 292.707 1119.29 291.251 1112.14 288.339C1104.99 285.161 1099.3 280.395 1095.06 274.041C1090.83 267.422 1088.71 259.214 1088.71 249.417V110.013H1060.51V82.6094H1088.71V13.5034H1123.66V82.6094H1170.13V110.013H1123.66V238.694C1124.19 246.107 1126.71 251.667 1131.21 255.374C1135.71 258.816 1141 260.537 1147.09 260.537C1153.98 260.537 1160.33 259.346 1166.16 256.963C1171.98 254.58 1175.82 252.859 1177.67 251.8L1186.01 279.601Z" fill="#3B3B3B"/>
<path d="M937.813 293.899C922.191 293.899 907.893 291.119 894.919 285.559C882.21 279.734 871.09 271.923 861.558 262.126C852.291 252.065 845.01 240.547 839.714 227.573C834.683 214.599 832.168 200.831 832.168 186.269C832.168 166.675 836.669 148.803 845.671 132.652C854.674 116.501 867.118 103.527 883.005 93.7301C899.156 83.9335 917.558 79.0352 938.21 79.0352C959.127 79.0352 977.264 84.0659 992.621 94.1273C1008.24 103.924 1020.29 116.898 1028.76 133.049C1037.5 148.935 1041.87 166.146 1041.87 184.68C1041.87 187.328 1041.74 189.975 1041.47 192.623C1041.47 195.006 1041.34 196.86 1041.07 198.183H869.104C870.163 211.687 873.87 223.734 880.224 234.325C886.844 244.651 895.317 252.859 905.643 258.949C915.969 264.774 927.089 267.687 939.004 267.687C951.713 267.687 963.628 264.509 974.749 258.155C986.134 251.8 993.945 243.46 998.181 233.134L1028.37 241.474C1023.86 251.535 1017.11 260.538 1008.11 268.481C999.373 276.424 988.914 282.646 976.734 287.147C964.82 291.649 951.846 293.899 937.813 293.899ZM867.912 173.957H1009.3C1008.24 160.453 1004.4 148.538 997.784 138.212C991.165 127.886 982.692 119.81 972.366 113.985C962.04 108.16 950.654 105.248 938.21 105.248C926.03 105.248 914.777 108.16 904.451 113.985C894.125 119.81 885.652 127.886 879.033 138.212C872.678 148.538 868.972 160.453 867.912 173.957Z" fill="#3B3B3B"/>
<path d="M816.393 279.601C813.481 280.925 809.509 282.646 804.479 284.764C799.448 286.882 793.623 288.736 787.004 290.324C780.384 291.913 773.368 292.707 765.954 292.707C757.481 292.707 749.67 291.251 742.522 288.339C735.373 285.161 729.68 280.395 725.444 274.041C721.207 267.422 719.089 259.214 719.089 249.417V110.013H690.891V82.6094H719.089V13.5034H754.039V82.6094H800.507V110.013H754.039V238.694C754.569 246.107 757.084 251.667 761.585 255.374C766.086 258.816 771.382 260.537 777.472 260.537C784.356 260.537 790.71 259.346 796.535 256.963C802.36 254.58 806.2 252.859 808.053 251.8L816.393 279.601Z" fill="#3B3B3B"/>
<path d="M586.325 293.899C569.114 293.899 552.963 291.119 537.871 285.559C522.779 279.734 509.805 271.129 498.949 259.743L512.453 235.119C524.367 246.24 536.282 254.183 548.197 258.949C560.112 263.715 572.292 266.098 584.736 266.098C599.034 266.098 610.684 263.45 619.686 258.155C628.688 252.594 633.19 244.519 633.19 233.928C633.19 226.249 630.807 220.557 626.041 216.85C621.539 213.143 615.053 210.098 606.58 207.715C598.107 205.068 588.046 202.155 576.396 198.978C562.098 194.741 550.051 190.24 540.254 185.474C530.457 180.708 523.044 174.751 518.013 167.602C512.982 160.453 510.467 151.451 510.467 140.595C510.467 127.356 513.909 116.236 520.793 107.234C527.677 97.9665 537.077 90.95 548.991 86.1841C561.171 81.4181 574.939 79.0352 590.296 79.0352C605.653 79.0352 619.554 81.4181 631.998 86.1841C644.442 90.95 655.166 97.9665 664.168 107.234L648.282 131.46C640.074 122.988 631.071 116.765 621.275 112.794C611.478 108.557 600.49 106.439 588.31 106.439C581.161 106.439 574.145 107.366 567.261 109.219C560.377 110.808 554.684 113.853 550.183 118.354C545.682 122.59 543.431 128.68 543.431 136.623C543.431 143.243 545.152 148.538 548.594 152.51C552.301 156.217 557.597 159.394 564.481 162.042C571.63 164.689 580.235 167.602 590.296 170.779C605.918 175.28 619.421 179.782 630.807 184.283C642.457 188.784 651.459 194.609 657.814 201.758C664.168 208.907 667.345 218.836 667.345 231.545C667.345 251.138 659.932 266.495 645.104 277.616C630.277 288.471 610.684 293.899 586.325 293.899Z" fill="#3B3B3B"/>
<path d="M372.324 293.899C356.703 293.899 342.405 291.119 329.431 285.559C316.722 279.734 305.601 271.923 296.07 262.126C286.802 252.065 279.521 240.547 274.226 227.573C269.195 214.599 266.68 200.831 266.68 186.269C266.68 166.675 271.181 148.803 280.183 132.652C289.185 116.501 301.63 103.527 317.516 93.7301C333.667 83.9335 352.069 79.0352 372.722 79.0352C393.639 79.0352 411.776 84.0659 427.133 94.1273C442.754 103.924 454.801 116.898 463.274 133.049C472.012 148.935 476.381 166.146 476.381 184.68C476.381 187.328 476.248 189.975 475.983 192.623C475.983 195.006 475.851 196.86 475.586 198.183H303.616C304.675 211.687 308.382 223.734 314.736 234.325C321.355 244.651 329.828 252.859 340.154 258.949C350.481 264.774 361.601 267.687 373.516 267.687C386.225 267.687 398.14 264.509 409.26 258.155C420.646 251.8 428.457 243.46 432.693 233.134L462.877 241.474C458.376 251.535 451.624 260.538 442.622 268.481C433.884 276.424 423.426 282.646 411.246 287.147C399.331 291.649 386.357 293.899 372.324 293.899ZM302.424 173.957H443.813C442.754 160.453 438.915 148.538 432.296 138.212C425.676 127.886 417.204 119.81 406.877 113.985C396.551 108.16 385.166 105.248 372.722 105.248C360.542 105.248 349.289 108.16 338.963 113.985C328.637 119.81 320.164 127.886 313.545 138.212C307.19 148.538 303.483 160.453 302.424 173.957Z" fill="#3B3B3B"/>
<path d="M3.77873 159.989C18.8599 105.755 74.6985 73.9171 128.497 88.8774C182.296 103.838 213.683 159.931 198.602 214.164C183.521 268.398 127.682 300.235 73.8832 285.275C20.0847 270.314 -11.3021 214.222 3.77873 159.989ZM165.077 126.639C157.113 109.523 136.527 103.683 117.944 107.007C88.3921 112.294 54.7276 126.423 32.1694 156.812C1.70353 197.853 28.5087 242.771 58.3803 264.94C88.2494 287.082 133.758 271.495 153.397 222.356C153.4 222.349 153.407 222.344 153.414 222.344C153.422 222.344 153.429 222.34 153.432 222.333C172.586 184.019 176.194 150.533 165.077 126.639Z" fill="#3B3B3B"/>
</svg>
